PathFileType	3	(X/Y/Z)	D:\minhoCalibration\240510\subject3_KPNP\preferred\preferred13.trc
DataRate	CameraRate	NumFrames	NumMarkers	Units	OrigDataRate	OrigDataStartFrame	OrigNumFrames
200.0	200.0	30	10	mm	200.0	732	131	
Frame#	Time	Left_Ankle_Outer1			Left_Ankle_Inner1			Left_Knee_Outer1			Left_Knee_Inner1			Left_Wrist1			Right_Wrist1			Right_Knee_Inner1			Right_Knee_Outer1			Right_Ankle_Inner1			Right_Ankle_Outer1			
		X1	Y1	Z1	X2	Y2	Z2	X3	Y3	Z3	X4	Y4	Z4	X5	Y5	Z5	X6	Y6	Z6	X7	Y7	Z7	X8	Y8	Z8	X9	Y9	Z9	X10	Y10	Z10	
732	3.65	-330.23199	92.496773	-528.82422	-386.37396	105.05042	-518.81964	-203.09525	506.50351	-433.39069	-295.94604	514.17236	-391.68207	-142.65219	911.46912	-586.56451	-471.54544	1029.604	-452.12033	-317.03494	818.33875	-105.19171	-414.45401	882.82654	-106.99567	-438.30161	503.32068	164.26108	-530.35864	541.62274	154.30269
733	3.655	-330.18469	91.065628	-529.31555	-386.35464	103.47912	-519.73779	-204.72343	505.51974	-432.67249	-298.90829	512.73767	-393.24088	-142.2403	910.55267	-584.91107	-473.00043	1025.3273	-452.98166	-318.62912	809.99042	-106.74272	-417.51627	872.47974	-109.54102	-441.81747	481.15836	143.22723	-536.30725	518.85065	133.84296
734	3.66	-330.27557	89.831764	-529.76489	-386.5351	102.00716	-520.49469	-206.27444	504.6236	-432.00345	-301.50201	511.56842	-394.69293	-141.82101	909.37842	-583.24561	-474.2106	1021.4183	-453.72424	-320.40344	800.8537	-108.54092	-420.39948	861.82043	-112.35974	-449.00778	459.01569	123.87689	-542.59241	496.59543	112.44585
735	3.665	-330.60535	88.565796	-530.18536	-386.72372	100.13813	-520.61896	-207.72031	503.88937	-431.48602	-303.41577	510.43106	-396.15097	-141.90613	908.08936	-581.66144	-475.27112	1017.82	-454.3508	-322.34149	791.0047	-110.78084	-422.979	850.95483	-115.29375	-454.21027	437.60367	102.05624	-548.27838	475.15515	90.175468
736	3.67	-331.47852	87.257408	-530.49902	-387.74554	99.337364	-521.37512	-209.20703	503.13632	-431.15091	-305.25024	509.16733	-397.46472	-141.64453	906.5318	-580.23816	-476.32626	1014.6202	-454.92419	-325.00998	780.07214	-113.25371	-425.03268	839.633	-118.34795	-457.74435	417.20847	77.87986	-554.00354	454.64792	67.47142
737	3.675	-332.48398	86.048737	-530.64661	-388.7233	97.989128	-521.73334	-210.88277	502.37131	-431.17157	-307.18567	508.30911	-398.27814	-141.59088	905.18744	-578.82068	-477.32617	1011.6254	-455.4592	-327.15445	768.88892	-116.29279	-427.00198	828.7168	-120.90804	-464.79617	396.57071	56.167034	-559.19	434.90408	44.004066
738	3.68	-333.57266	84.976852	-531.00311	-389.98938	96.699608	-521.83594	-212.23964	501.70718	-431.35757	-308.38782	507.29752	-399.58359	-141.7813	903.52496	-577.27234	-478.47968	1008.9606	-455.91586	-329.19412	757.24884	-119.92057	-429.13058	817.39276	-123.60336	-468.755	377.23804	31.296448	-563.83997	415.92725	19.696867
739	3.685	-336.15726	82.963516	-530.60443	-391.31882	95.336365	-521.83899	-213.21489	501.16299	-431.6792	-309.83954	506.76978	-400.36642	-141.96475	901.92493	-575.88074	-479.86185	1006.4454	-456.45969	-331.32748	745.16974	-123.9294	-430.70673	805.9339	-126.71597	-472.51395	358.84048	5.7182302	-568.25482	397.86655	-5.1130323
740	3.69	-337.09775	82.07193	-531.5304	-392.94107	93.956757	-521.8501	-214.27791	500.49609	-432.46362	-310.89319	506.27304	-401.29395	-142.41747	900.26318	-574.25934	-480.93173	1003.8821	-457.0062	-333.47751	732.81421	-128.76189	-432.83585	794.11212	-129.95967	-479.01453	340.42758	-18.439524	-572.2605	380.58731	-30.36241
741	3.695	-338.8783	80.663231	-531.8269	-394.62537	92.476036	-521.93579	-215.44286	499.62189	-433.36926	-312.18771	505.07974	-402.56339	-142.88451	898.79816	-572.77179	-482.02972	1001.7958	-456.69421	-335.84531	720.07513	-134.14496	-434.67636	781.72211	-134.66655	-480.75031	324.50443	-45.83157	-576.23755	364.20572	-55.769314
742	3.7	-341.40146	78.603043	-531.7832	-396.19455	90.808075	-521.94965	-216.81197	498.49121	-434.71375	-313.44781	504.07584	-403.55383	-143.40567	897.21393	-571.13367	-482.80551	998.2973	-458.89487	-338.31735	707.20911	-140.12582	-438.38928	770.14117	-136.48953	-484.26346	308.25287	-72.651901	-579.44617	348.69095	-81.81395
743	3.705	-342.6304	76.886574	-532.71259	-397.71185	89.147911	-522.16443	-217.77878	497.30328	-436.20212	-314.02545	503.29034	-404.61859	-144.42123	895.71484	-569.29004	-483.7597	995.4624	-459.64304	-341.00336	694.23822	-146.7326	-440.74509	757.13477	-141.31133	-488.24191	293.19339	-99.565384	-582.26477	334.05255	-107.66674
744	3.71	-343.71652	75.513481	-533.25299	-398.8226	86.813072	-522.0462	-218.93253	495.83026	-437.82248	-314.96567	501.81134	-405.883	-144.88402	894.56287	-567.87964	-484.70355	992.6001	-460.25391	-345.02856	680.25238	-152.38095	-444.10718	744.29254	-145.95164	-489.85901	279.36172	-127.46933	-584.45581	320.27676	-134.75876
745	3.715	-345.13989	73.190559	-533.74408	-399.91391	84.744774	-522.54901	-220.02809	494.32602	-439.78055	-315.41794	500.45169	-407.0719	-145.87257	893.24512	-565.98468	-485.33975	989.55078	-461.19315	-347.54099	667.51825	-160.39038	-447.83936	731.36133	-151.05081	-490.23016	267.08032	-155.10349	-586.32452	306.87839	-162.40346
746	3.72	-345.88034	71.419411	-534.26849	-401.09171	83.063156	-523.51349	-221.33096	492.59427	-441.854	-315.71094	498.63812	-408.73163	-146.21669	892.09235	-564.46234	-486.79691	986.36768	-461.23792	-350.93201	654.44098	-167.95316	-452.34235	718.14185	-155.99649	-491.97165	255.71535	-182.83385	-587.63953	294.99588	-188.7699
747	3.725	-346.66232	69.62339	-534.50629	-401.94424	81.122665	-524.12604	-222.69426	490.78119	-443.9631	-316.99875	497.11798	-410.30402	-146.94559	890.91174	-562.60559	-487.69904	982.68329	-462.08823	-354.34109	641.34747	-175.89394	-456.32434	705.4259	-162.35509	-492.34128	244.67482	-210.35472	-588.5697	284.51816	-214.79843
748	3.73	-347.29797	67.818222	-535.2757	-402.84085	79.562691	-524.55981	-223.61809	489.0914	-446.20657	-318.01157	494.93677	-413.70251	-148.87581	889.57977	-560.22473	-488.82538	979.51379	-462.43588	-357.64276	629.04633	-184.41502	-461.23361	692.45276	-169.10661	-492.27515	234.53307	-237.61501	-588.34393	272.96555	-244.26556
749	3.735	-348.22971	66.94091	-535.53711	-403.86472	78.48983	-524.65692	-224.3494	487.41885	-448.09848	-317.91483	493.28784	-413.95654	-148.45815	888.8252	-558.789	-490.427	975.84644	-463.27576	-361.2298	617.0249	-193.04498	-465.7695	680.13898	-176.42819	-491.34692	225.29681	-264.61328	-588.01678	263.02673	-271.2605
750	3.74	-348.97699	66.905136	-535.57269	-404.79614	77.981216	-524.42511	-224.67558	485.91574	-449.75269	-318.79669	491.52432	-416.11838	-149.31058	887.76782	-556.86322	-491.54865	971.56396	-465.26813	-365.00354	605.3028	-201.77168	-470.92157	667.75726	-183.86766	-489.26379	217.084	-290.6843	-586.91888	253.89165	-298.68692
751	3.745	-349.77667	66.47644	-535.54803	-405.96893	78.542755	-525.54688	-224.89096	484.65985	-450.99411	-320.73901	489.5181	-418.86465	-149.53246	887.05511	-555.11572	-493.29413	967.32544	-466.82086	-368.97565	594.0061	-210.57669	-476.55469	655.36725	-191.48436	-487.64691	209.37517	-316.73236	-585.38959	245.48427	-325.91693
752	3.75	-350.62943	66.160606	-534.95844	-406.34	78.712059	-525.57019	-224.75905	483.86108	-451.89304	-320.94162	488.92426	-420.54987	-149.45601	886.76276	-553.62878	-494.75565	963.53046	-468.37796	-372.83456	583.20605	-219.30981	-481.60538	643.8761	-200.49979	-485.71484	202.38022	-342.39917	-583.26678	238.12468	-352.87051
753	3.755	-350.49673	65.963661	-535.28522	-406.22244	78.711525	-525.49707	-224.4214	483.79599	-452.42389	-321.32648	488.65466	-422.33585	-149.24724	886.69019	-552.04675	-496.43604	959.35474	-470.56546	-377.81693	572.71625	-228.48833	-486.85208	632.68842	-209.95836	-483.45126	196.05942	-367.46768	-581.10028	231.73007	-379.71283
754	3.76	-350.11984	65.895462	-535.42377	-406.0701	79.163597	-526.0199	-224.16696	484.31113	-452.60022	-321.51813	488.44016	-423.57843	-149.09567	886.89679	-550.52942	-498.01862	955.7063	-472.16718	-382.60236	562.27606	-237.80333	-492.1752	621.54321	-220.02725	-480.68555	190.28238	-391.99341	-578.34937	225.88126	-405.95895
755	3.765	-349.74698	66.0392	-535.27673	-405.84732	79.414551	-526.28162	-223.55042	485.48746	-452.73801	-320.96588	489.10861	-423.99774	-148.64688	887.62598	-549.25562	-499.76907	951.98151	-474.13437	-387.46817	552.22736	-247.62567	-497.37488	611.34406	-230.80246	-478.03238	183.14731	-417.20712	-575.14911	220.43408	-431.91254
756	3.77	-349.24246	66.082329	-535.37115	-405.02432	79.347626	-526.19788	-222.87852	486.98984	-452.71545	-320.23532	490.10965	-424.37427	-149.0538	888.34259	-547.37787	-501.1521	948.19482	-476.24869	-392.35699	542.58411	-257.99005	-502.47824	601.22357	-242.15018	-476.11365	177.36681	-441.06125	-571.85791	215.79495	-457.0687
757	3.775	-348.02307	66.426819	-536.02203	-404.2915	79.559418	-526.54077	-222.08763	488.42401	-452.74097	-319.51245	491.02957	-424.97525	-150.20892	889.04437	-545.39038	-502.24936	944.42804	-478.55069	-397.18079	533.46533	-268.89346	-507.7392	591.60999	-253.74651	-472.03394	173.57599	-463.39844	-568.34613	211.54497	-481.98361
758	3.78	-347.60593	66.371124	-536.10938	-403.89578	79.709732	-526.76727	-221.66423	489.43686	-452.85754	-319.84561	491.39368	-426.2753	-150.42934	890.1145	-543.75775	-503.55099	941.30811	-480.6297	-401.11374	524.84259	-279.47195	-513.15436	582.20129	-266.17014	-469.31796	170.2625	-486.1651	-564.45215	207.90903	-506.33685
759	3.785	-348.26233	65.397278	-535.51727	-402.80707	79.02739	-525.88983	-221.1777	490.19028	-453.32294	-320.98294	491.40659	-428.51575	-148.64302	892.06744	-542.80609	-504.42941	938.37946	-482.83093	-406.26852	516.85083	-292.05081	-518.6535	573.25427	-279.10526	-465.66776	167.09218	-507.92862	-560.44965	204.62831	-529.97723
760	3.79	-346.69711	66.06649	-536.38098	-402.41721	78.974152	-526.06488	-220.85391	490.59814	-454.04559	-314.55237	494.26129	-422.54694	-149.98431	892.84033	-540.59344	-505.27667	935.82446	-485.00449	-410.7327	509.34888	-304.05054	-523.59363	564.90961	-293.08652	-462.25467	164.05135	-529.21094	-556.27271	201.23878	-552.88654
761	3.795	-346.54065	65.725548	-536.52252	-401.78394	78.492393	-525.95312	-220.47624	490.72064	-454.68631	-314.88705	494.35281	-423.18924	-150.62701	893.96814	-538.83411	-506.12552	933.70142	-487.25931	-414.78369	502.39236	-315.76044	-528.86328	556.98792	-307.37778	-458.73407	160.98161	-549.12018	-552.26398	199.35226	-575.05634
